<?xml version="1.0" encoding="UTF-8" standalone="no"?>
<!-- Created with Inkscape (http://www.inkscape.org/) -->

<svg
   xmlns:dc="http://purl.org/dc/elements/1.1/"
   xmlns:cc="http://creativecommons.org/ns#"
   xmlns:rdf="http://www.w3.org/1999/02/22-rdf-syntax-ns#"
   xmlns:svg="http://www.w3.org/2000/svg"
   xmlns="http://www.w3.org/2000/svg"
   xmlns:sodipodi="http://sodipodi.sourceforge.net/DTD/sodipodi-0.dtd"
   xmlns:inkscape="http://www.inkscape.org/namespaces/inkscape"
   width="961.09003"
   height="965.35999"
   id="svg2"
   version="1.1"
   inkscape:version="0.48.3.1 r9886"
   sodipodi:docname="New document 1">
  <defs
     id="defs4" />
  <sodipodi:namedview
     id="base"
     pagecolor="#ffffff"
     bordercolor="#666666"
     borderopacity="1.0"
     inkscape:pageopacity="0.0"
     inkscape:pageshadow="2"
     inkscape:zoom="0.46561916"
     inkscape:cx="372.04724"
     inkscape:cy="489.18938"
     inkscape:document-units="px"
     inkscape:current-layer="layer1"
     showgrid="false"
     showguides="true"
     inkscape:guide-bbox="true"
     inkscape:window-width="1024"
     inkscape:window-height="692"
     inkscape:window-x="0"
     inkscape:window-y="24"
     inkscape:window-maximized="1" />
  <metadata
     id="metadata7">
    <rdf:RDF>
      <cc:Work
         rdf:about="">
        <dc:format>image/svg+xml</dc:format>
        <dc:type
           rdf:resource="http://purl.org/dc/dcmitype/StillImage" />
        <dc:title></dc:title>
      </cc:Work>
    </rdf:RDF>
  </metadata>
  <g
     inkscape:label="Layer 1"
     inkscape:groupmode="layer"
     id="layer1"
     transform="translate(0,-86.995162)">
    <g
       id="g3048"
       transform="translate(16.295353,-0.578015)">
      <rect
         y="-10.73839"
         x="697.9953"
         height="21.47678"
         width="8.5907116"
         id="rect2987"
         style="fill:#0000ff;fill-rule:evenodd;stroke:#000000;stroke-width:1px;stroke-linecap:butt;stroke-linejoin:miter;stroke-opacity:1" />
      <rect
         y="-15.033746"
         x="21.47678"
         height="21.47678"
         width="2.1476779"
         id="rect2989"
         style="fill:#0000ff;fill-rule:evenodd;stroke:#000000;stroke-width:1px;stroke-linecap:butt;stroke-linejoin:miter;stroke-opacity:1" />
      <rect
         y="85.400078"
         x="-17.181423"
         height="966.95508"
         width="962.15973"
         id="rect3014"
         style="fill:#0000ff;fill-rule:evenodd;stroke:#000000;stroke-width:1.00360966px;stroke-linecap:butt;stroke-linejoin:miter;stroke-opacity:1" />
      <text
         transform="scale(0.86624478,1.1544081)"
         sodipodi:linespacing="125%"
         id="text3020"
         y="444.40366"
         x="4.9585729"
         style="font-size:120.63258362px;font-style:normal;font-weight:normal;line-height:125%;letter-spacing:0px;word-spacing:0px;fill:#000000;fill-opacity:1;stroke:none;font-family:Sans"
         xml:space="preserve"><tspan
           style="font-size:193.012146px;font-style:normal;font-variant:normal;font-weight:bold;font-stretch:normal;text-align:start;line-height:125%;writing-mode:lr-tb;text-anchor:start;fill:#ff0000;font-family:Spastic BRK;-inkscape-font-specification:Spastic BRK Bold"
           y="444.40366"
           x="4.9585729"
           id="tspan3022"
           sodipodi:role="line">GAME</tspan><tspan
           id="tspan3024"
           style="font-size:193.012146px;font-style:normal;font-variant:normal;font-weight:bold;font-stretch:normal;text-align:start;line-height:125%;writing-mode:lr-tb;text-anchor:start;fill:#ff0000;font-family:Spastic BRK;-inkscape-font-specification:Spastic BRK Bold"
           y="685.66882"
           x="4.9585729"
           sodipodi:role="line">OVER<tspan
   id="tspan3026"
   style="font-size:181.80186462px;font-style:normal;font-variant:normal;font-weight:bold;font-stretch:normal;text-align:start;line-height:125%;writing-mode:lr-tb;text-anchor:start;font-family:Spheroids BRK;-inkscape-font-specification:Spheroids BRK Bold">!!!</tspan></tspan></text>
      <path
         inkscape:transform-center-y="-0.11086135"
         inkscape:transform-center-x="-0.0022288539"
         transform="translate(143.89442,164.31157)"
         d="m 448.86468,862.27143 -57.62926,-47.53015 45.86015,58.96688 -52.05078,-53.58136 39.09497,63.65398 -45.84047,-58.98217 31.85522,67.56841 -39.07373,-63.66702 24.2288,70.66266 -31.83268,-67.57904 16.30828,72.89915 -24.20523,-70.67073 8.18979,74.25074 -16.28396,-72.90458 -0.0281,74.70103 -8.16503,-74.25347 -8.24566,74.24456 0.053,-74.70102 -16.36313,72.88685 8.27043,-74.2418 -24.28197,70.6444 16.38744,-72.88139 -31.90606,67.54442 24.30554,-70.6363 -39.14286,63.62454 31.92859,-67.53377 -45.9045,58.93235 39.16407,-63.61148 -52.10894,53.52479 45.92417,-58.91703 -57.68085,47.46753 52.1268,-53.50741 -62.55258,40.83406 57.69667,-47.44828 -66.665,33.70493 62.56619,-40.8132 -69.96821,26.16667 66.67624,-33.68269 -72.4221,18.31077 69.97694,-26.14332 -73.99689,10.23261 72.42821,-18.28661 -74.67345,2.03024 74.0003,-10.20793 -74.44357,-6.19677 74.67412,-2.00533 -73.31006,-14.34857 74.4415,6.22161 -71.28665,-22.3262 73.30527,14.37303 -68.39793,-30.03281 71.2792,22.34997 -64.67894,-37.37486 68.3879,30.05562 -60.17484,-44.26323 64.66647,37.39643 -54.9403,-50.61431 60.16007,44.2833 -49.03886,-56.351 54.92341,50.63264 -42.54215,-61.40367 49.02006,56.36736 -35.52904,-65.71098 42.52167,61.41786 -28.08466,-69.22064 35.50712,65.72282 -20.29937,-71.89006 28.06157,69.23001 -12.26766,-73.68684 20.27538,71.89683 -4.08705,-74.58915 12.24308,73.69092 4.14318,-74.58605 4.06216,74.59051 12.32311,-73.67758 -4.16805,74.58466 20.35345,-71.87476 -12.34768,73.67347 28.13674,-69.19949 -20.37744,71.86797 35.57849,-65.68422 -28.15983,69.1901 42.58835,-61.37164 -35.60039,65.67235 49.08125,-56.31408 -42.60882,61.35742 54.97838,-50.57295 -49.10004,56.29771 60.20814,-44.21794 -54.99525,50.55461 64.70705,-37.32618 -60.22288,44.19786 68.42051,-29.98133 -64.7195,37.30459 71.30343,-22.27254 -68.4305,29.9585 73.32083,-14.2934 -71.31086,22.24875 74.44822,-6.14075 -73.3256,14.26894 74.6719,2.08644 -74.45026,6.11591 73.98917,10.28829 -74.6712,-2.11134 72.4083,18.36527 -73.98573,-10.31298 69.94851,26.21931 -72.40218,-18.38942 66.63963,33.75509 -69.93976,-26.24264 62.52183,40.88112 -66.62836,-33.77731 57.64511,47.51091 -62.50819,-40.90197 z"
         inkscape:randomized="0"
         inkscape:rounded="0"
         inkscape:flatsided="false"
         sodipodi:arg2="0.79972014"
         sodipodi:arg1="0.74460448"
         sodipodi:r2="74.475204"
         sodipodi:r1="148.95041"
         sodipodi:cy="761.33057"
         sodipodi:cx="339.3331"
         sodipodi:sides="57"
         id="path3028"
         style="fill:#f4e3d7"
         sodipodi:type="star" />
      <path
         inkscape:transform-center-y="0.013736296"
         inkscape:transform-center-x="0.081250138"
         transform="translate(77.316402,147.13014)"
         d="m 399.46809,129.91328 -53.57467,-32.651043 45.15234,43.561473 -49.65763,-38.34652 40.08618,48.26421 -45.13781,-43.57653 34.53342,52.38109 -40.07007,-48.27759 28.56147,55.86214 -34.51594,-52.39261 22.24283,58.66508 -28.54283,-55.87165 15.65418,60.75591 -22.22325,-58.67249 8.87552,62.10926 -15.63392,-60.76114 1.98913,62.70868 -8.8548,-62.11222 -4.92142,62.5469 -1.96821,-62.70934 -11.77221,61.62589 4.94227,-62.54525 -18.48012,59.95682 11.79277,-61.62196 -24.9637,57.55996 18.50012,-59.95066 -31.14426,54.4644 24.98291,-57.55163 -36.94677,50.70771 31.16243,-54.454 -42.30079,46.3355 36.96368,-50.69538 -47.14134,41.40084 42.31624,-46.32139 -51.40965,35.96363 47.15514,-41.385112 -55.05392,30.089872 51.42165,-35.94648 -58.02993,23.85086 55.06397,-30.071503 -60.30151,17.322333 58.03787,-23.8315 -61.84112,10.583537 60.30729,-17.302217 -62.63007,3.716271 61.84465,-10.562908 -62.65876,-3.196105 62.6313,-3.695379 -61.92687,-10.069686 62.65769,3.217008 -60.44326,-16.821035 61.9235,10.090344 -58.22596,-23.368198 60.43765,16.841197 -55.30188,-29.6317038 58.21817,23.3876198 -51.7065,-35.5355197 55.29199,29.6501497 -47.48348,-41.007983 51.69464,35.552766 -42.68407,-45.982666 47.4698,41.023822 -37.36654,-50.399181 42.66873,45.996902 -31.59542,-54.203918 37.34972,50.4116431 -25.44078,-57.3506931 31.57734,54.2144549 -18.97733,-59.8013079 25.42165,57.35917618 -12.28351,-61.52601618 18.95737,59.807635 -5.44059,-62.503882 12.26299,61.5301103 1.46837,-62.7230363 5.41974,62.5056943 8.35951,-62.1808163 -1.4893,62.7225422 L 319.8733,-63.835345 311.49305,-1.6573208 333.24799,-60.50507 318.07851,0.37367931 346.17516,-55.723681 324.40058,3.1168079 358.49787,-49.549218 330.38251,6.538767 l 39.68404,-48.595396 -34.11486,52.654648 44.78908,-43.934885 -39.70025,48.582155 49.35044,-38.741063 -44.80373,43.919941 53.31274,-33.076978 -49.36335,38.724599 56.62791,-27.01138273 -53.32378,33.05919173 59.2557,-20.617906 -56.63692,26.992491 61.16419,-13.974156 -59.26257,20.598138 62.33024,-7.160778 -61.16885,13.953751 62.73968,-0.260478 -62.33262,7.139985 62.38754,6.642983 -62.73976,0.239549 61.27811,13.465808 -62.38532,-6.663795 59.42484,20.125176 -61.27361,-13.486248 56.85024,26.540253 -59.41813,-20.145 53.58556,32.63316 -56.84139,-26.55921 z"
         inkscape:randomized="0"
         inkscape:rounded="0"
         inkscape:flatsided="false"
         sodipodi:arg2="0.65740301"
         sodipodi:arg1="0.60228735"
         sodipodi:r2="62.550545"
         sodipodi:r1="125.10109"
         sodipodi:cy="59.039902"
         sodipodi:cx="296.37955"
         sodipodi:sides="57"
         id="path3030"
         style="fill:#f4e3d7"
         sodipodi:type="star" />
      <path
         inkscape:transform-center-y="0.079159993"
         inkscape:transform-center-x="0.011514947"
         transform="translate(-51.54427,-35.42248)"
         d="m 831.15136,325.35197 -39.1688,-45.30938 28.33007,52.76875 -33.94667,-49.34327 22.35314,55.56503 -28.31247,-52.7782 16.10485,57.68681 -22.3346,-55.57248 9.66109,59.10836 -16.08561,-57.69218 3.10005,59.81241 -9.64137,-59.11158 -3.49863,59.79042 -3.08009,-59.81344 -10.05483,59.04265 3.51857,-59.78925 -16.48898,57.57819 10.07452,-59.03929 -22.72297,55.41481 16.50818,-57.57269 -28.68115,52.57876 22.74147,-55.40722 -34.29117,49.10448 28.69868,-52.56919 -39.48494,45.03414 34.30755,-49.09304 -44.19942,40.41714 39.49996,-45.02096 -48.37738,35.30954 44.2129,-40.4024 -51.9681,29.77333 48.38916,-35.29341 -54.928,23.87571 51.97803,-29.75599 -57.22115,17.68826 54.93596,-23.85738 -58.81971,11.28611 57.22705,-17.66917 -59.70428,4.74696 58.82347,-11.26649 -59.86412,-1.84981 59.70586,-4.72704 -59.29729,-8.42413 59.8635,1.86978 -58.01067,-14.89619 59.29447,8.44391 -56.01988,-21.18743 58.0057,14.91554 -53.34909,-27.22149 56.01281,21.20612 -50.0307,-32.92511 53.34,27.23928 -46.10502,-38.22906 50.01972,32.94179 -41.61969,-43.06897 46.09227,38.24445 -36.62914,-47.38608 41.60532,43.08285 -31.19397,-51.12799 36.61333,47.3983 -25.38014,-54.24927 31.17691,51.13839 -19.25824,-56.71203 25.36204,54.25773 -12.90256,-58.4864 19.23932,56.71846 -6.39027,-59.55081 12.88305,58.49069 0.1996,-59.89236 6.3704,59.55294 6.78703,-59.50689 -0.21957,59.89229 13.29209,-58.3991 -6.80688,59.50462 19.63579,-56.58241 -13.31157,58.39466 25.74115,-54.0789 -19.65467,56.57586 31.53405,-50.91894 -25.75919,54.07031 36.94415,-47.14089 -31.55103,50.90842 41.90582,-42.79062 -36.95988,47.12857 46.3588,-37.92093 -41.92009,42.77664 50.24904,-32.59092 -46.37144,37.90545 53.52933,-26.86531 -50.25991,32.57416 56.15985,-20.81359 -53.53829,26.84746 58.10867,-14.50922 -56.1668,20.79485 59.35212,-8.02873 -58.1135,14.48984 59.87512,-1.45078 -59.3548,8.00893 59.67132,5.14478 -59.8756,1.4308 58.74318,11.6779 -59.66959,-5.16469 57.10198,18.06925 -58.73928,-11.69749 54.76765,24.24127 -57.09596,-18.0883 51.76851,30.11903 -54.75956,-24.25953 48.14097,35.63119 -51.75846,-30.1363 43.92906,40.71083 -48.12908,-35.64724 39.18392,45.2963 -43.91548,-40.72549 z"
         inkscape:randomized="0"
         inkscape:rounded="0"
         inkscape:flatsided="false"
         sodipodi:arg2="0.96802338"
         sodipodi:arg1="0.91290772"
         sodipodi:r2="59.711624"
         sodipodi:r1="119.42325"
         sodipodi:cy="230.85414"
         sodipodi:cx="758.13031"
         sodipodi:sides="57"
         id="path3032"
         style="fill:#f4e3d7"
         sodipodi:type="star" />
      <path
         inkscape:transform-center-y="-0.06206066"
         inkscape:transform-center-x="0.036123541"
         transform="translate(0,86.995162)"
         d="m 165.37119,868.71447 -45.68076,-46.02991 34.52757,54.89383 -40.33985,-50.7758 28.27924,58.35897 -34.50926,-54.90534 21.68764,61.11573 -28.25978,-58.36841 14.83278,63.13061 -21.66725,-61.12295 7.79787,64.37918 -14.811722,-63.13556 0.668299,64.84627 -7.77639,-64.38177 -6.46938,64.52621 -0.646668,-64.84649 -13.528529,63.4229 6.490903,-64.52405 -20.42346,61.54971 13.549684,-63.41838 -27.070478,58.9294 20.443989,-61.54289 -33.388896,55.59376 27.090132,-58.92037 -39.302019,51.58329 33.407439,-55.58262 -44.7380695,46.94667 39.3192235,-51.57018 -49.631059,41.74019 44.753726,-46.93175 -53.921596,36.02702 49.64498,-41.72362 -57.557597,29.87654 53.93361,-36.00903 -60.494927,23.3634 57.567559,-29.85734 -62.69793,16.56667 60.502717,-23.34323 -64.139866,9.56883 62.703453,-16.54575 -64.80323,2.45484 64.143054,-9.54744 -64.679971,-4.68894 64.804045,-2.43323 -63.771585,-11.77581 64.678403,4.71052 -62.089098,-18.71974 63.767654,11.79708 -59.652934,-25.43644 62.08285,18.74046 -56.492663,-31.84437 59.644446,25.45633 -52.646649,-37.86575 56.482038,31.86321 -48.161575,-43.4275 52.634015,37.88331 -43.091885,-48.46209 48.147087,43.44356 -37.49911837,-52.90842 43.07571737,48.47646 -31.451162,-56.71251 37.481467,52.92093 -25.021432,-59.8282 31.432244,56.723 -18.287977,-62.21764 25.001475,59.83654 -11.332529,-63.85185 18.267222,62.22374 -4.239519,-64.71098 11.311229,63.85562 2.904952,-64.78461 4.217934,64.71239 10.01416,-64.07184 -2.926561,64.78364 17.001808,-62.58134 -10.035528,64.06851 23.783078,-60.33117 -17.02268,62.57566 30.27566,-57.34867 -23.80321,60.32323 36.40074,-53.67002 -30.29479,57.33856 42.08395,-49.3399 -36.41864,53.65788 47.25633,-44.41087 -42.10041,49.32587 51.85507,-38.94274 -47.27113,44.3951 55.82436,-33.0019 -51.86805,38.92544 59.11603,-26.66046 -55.83537,32.98327 61.6901,-19.99539 -59.12492,26.64073 63.51535,-13.08762 -61.69677,19.97482 64.56959,-6.02098 -63.51971,13.06644 64.84006,1.11875 -64.5716,5.99944 64.32346,8.2449 -64.83969,-1.14038 63.02605,15.27097 -64.3207,-8.26636 60.96359,22.11167 -63.02095,-15.29199 58.16112,28.68396 -60.95621,-22.132 54.65264,34.90807 -58.15154,-28.70336 50.48076,40.70844 -54.64099,-34.9263 45.69611,46.01467 -50.46718,-40.72528 z"
         inkscape:randomized="0"
         inkscape:rounded="0"
         inkscape:flatsided="false"
         sodipodi:arg2="0.89926965"
         sodipodi:arg1="0.84415399"
         sodipodi:r2="64.653671"
         sodipodi:r1="129.30733"
         sodipodi:cy="772.06897"
         sodipodi:cx="79.464081"
         sodipodi:sides="57"
         id="path3034"
         style="fill:#f4e3d7"
         sodipodi:type="star" />
      <path
         inkscape:transform-center-y="0.058469383"
         inkscape:transform-center-x="0.029726647"
         transform="translate(88.054795,-65.489971)"
         d="m 850.48047,572.33494 -50.17079,-29.60209 42.49635,39.84284 -46.60982,-34.94163 37.85539,44.27598 -42.48306,-39.85702 32.75491,48.17165 -37.84061,-44.2886 27.25683,51.48259 -32.73884,-48.18257 21.42789,54.1686 -27.23965,-51.49168 15.33884,56.19708 -21.40982,-54.17575 9.06361,57.5434 -15.3201,-56.20219 2.67835,58.19122 -9.04441,-57.54642 -3.73942,58.13268 -2.65894,-58.19211 -10.11179,57.36849 3.75881,-58.13143 -16.36143,55.90792 10.13093,-57.36511 -22.41246,53.7687 16.38008,-55.90246 -28.19143,50.97682 22.43039,-53.76123 -33.62819,47.56613 28.20843,-50.96741 -38.65676,43.57806 33.64406,-47.55491 -43.21608,39.06101 38.67129,-43.56516 -47.25082,34.06981 43.22911,-39.04659 -50.712,28.66505 47.26218,-34.05405 -53.5576,22.91234 50.72156,-28.64813 -55.75309,16.88149 53.56524,-22.89447 -57.27181,10.64574 55.75872,-16.8629 -58.09533,4.28076 57.27536,-10.62663 -58.21365,-2.13619 58.09675,-4.26138 -57.62533,-8.5272 58.21293,2.15561 -56.33752,-14.81471 57.62249,8.54642 -54.36585,-20.92238 56.33257,14.8335 -51.73425,-26.77609 54.35887,20.94052 -48.47467,-32.30477 51.72531,26.79334 -44.62667,-37.44131 48.46389,32.32094 -40.23696,-42.12338 44.61418,37.4562 -35.35884,-46.29411 40.22291,42.13679 -30.0515,-49.90289 35.3434,46.3059 -24.37938,-52.90593 30.03485,49.91291 -18.41133,-55.26676 24.36173,52.91406 -12.21978,-56.95672 18.39289,55.2729 -5.87991,-57.95532 12.20078,56.9608 0.53134,-58.2504 5.86058,57.95727 6.93614,-57.83841 -0.55077,58.25022 13.25674,-56.72434 -6.95543,57.8361 19.41642,-54.92171 -13.27566,56.71991 25.34042,-52.4524 -19.43474,54.91523 30.95681,-49.34641 -25.35791,52.44396 36.19744,-45.6414 -30.97328,49.33607 40.99868,-41.38237 -36.21267,45.62932 45.30225,-36.62101 -41.01248,41.36869 49.0559,-31.41514 -45.31446,36.60591 52.21409,-25.82791 -49.06637,31.39876 54.73846,-19.92717 -52.2227,25.81049 56.59839,-13.78455 -54.74511,19.90892 57.7713,-7.4746 -56.60299,13.76567 58.24293,-1.07392 -57.77379,7.45533 58.00758,5.3398 -58.24329,1.05449 57.06809,11.6887 -58.00579,-5.35915 55.43586,17.89572 -57.06418,-11.70774 53.13073,23.88551 -55.42989,-17.91421 50.18066,29.58535 -53.12276,-23.90323 z"
         inkscape:randomized="0"
         inkscape:rounded="0"
         inkscape:flatsided="false"
         sodipodi:arg2="0.64311826"
         sodipodi:arg1="0.5880026"
         sodipodi:r2="58.076725"
         sodipodi:r1="116.15344"
         sodipodi:cy="507.9046"
         sodipodi:cx="753.83496"
         sodipodi:sides="57"
         id="path3036"
         style="fill:#f4e3d7"
         sodipodi:type="star" />
      <path
         inkscape:transform-center-y="-0.00090523642"
         inkscape:transform-center-x="-0.080967156"
         transform="translate(38.658203,151.4255)"
         d="m 867.66187,851.53305 -40.78735,-35.51184 32.04891,43.56106 -36.6332,-39.78326 27.06232,46.82232 -32.03437,-43.57175 21.74722,49.51522 -27.04669,-46.83135 16.16815,51.60707 -21.73071,-49.52247 10.39283,53.07248 -16.15094,-51.61246 4.49134,53.89366 -10.37512,-53.07594 -1.46467,54.06064 -4.47336,-53.89515 -7.40289,53.57141 1.4827,-54.06015 -13.25126,52.43188 7.42077,-53.56893 -18.93877,50.65591 13.26874,-52.42746 -24.39639,48.26504 18.95567,-50.64959 -29.55787,45.28831 24.41249,-48.25691 -34.36056,41.76183 29.57297,-45.27844 -38.74616,37.72842 34.37449,-41.75037 -42.66143,33.23704 38.75874,-37.71549 -46.05885,28.3422 42.67252,-33.2228 -48.89719,23.10333 46.06831,-28.32684 -51.14197,17.58402 48.90489,-23.08702 -52.76595,11.85126 51.14783,-17.56696 -53.74944,5.97464 52.7699,-11.83365 -54.08047,0.0255 53.75143,-5.9567 -53.75505,-5.92396 54.08048,-0.007 -52.77711,-11.80149 53.75307,5.94188 -51.15852,-17.53578 52.77316,11.8191 -48.91894,-23.05721 51.15267,17.55285 -46.08556,-28.29876 48.91125,23.07353 -42.69275,-33.1968 46.07612,28.31414 -38.78172,-37.69187 42.68168,33.21103 -34.39993,-41.72941 38.76914,37.70481 -29.60056,-45.26042 34.386,41.74088 -24.44188,-48.24202 29.58546,45.27029 -18.98653,-50.63803 24.4258,48.25017 -13.30069,-52.41937 18.96963,50.64436 -7.4534,-53.5644 13.2832,52.4238 -1.51564,-54.05923 7.43553,53.56688 4.44052,-53.89787 1.49761,54.05974 10.34278,-53.08225 -4.4585,53.89639 16.11948,-51.62229 -10.36048,53.0788 21.70053,-49.5357 -16.13671,51.61691 27.01816,-46.84782 -21.71706,49.52846 32.00782,-43.59126 -27.03378,46.8388 36.60895,-39.80557 -32.02236,43.58058 40.7657,-35.53669 -36.62223,39.79335 44.42761,-30.83644 -40.77755,35.52309 47.55022,-25.76189 -44.43789,30.82163 50.09565,-20.37462 -47.55882,25.74602 52.03297,-14.74001 -50.10243,20.35789 53.33869,-8.9265 -52.03789,14.72266 53.99695,-3.00463 -53.34167,8.90871 53.99976,2.95372 -53.99795,2.98661 53.34709,8.87621 -53.99877,-2.97173 52.04685,14.69095 -53.34412,-8.894 50.11483,20.32737 -52.04195,-14.70831 47.5745,25.71703 -50.10805,-20.34408 44.45666,30.79454 -47.56591,-25.73291 40.79919,35.49824 -44.44639,-30.80937 z"
         inkscape:randomized="0"
         inkscape:rounded="0"
         inkscape:flatsided="false"
         sodipodi:arg2="0.82643025"
         sodipodi:arg1="0.77131459"
         sodipodi:r2="53.916985"
         sodipodi:r1="107.83397"
         sodipodi:cy="776.36432"
         sodipodi:cx="790.34546"
         sodipodi:sides="57"
         id="path3038"
         style="fill:#f4e3d7"
         sodipodi:type="star" />
      <path
         inkscape:transform-center-y="-0.0093834415"
         inkscape:transform-center-x="0.038604723"
         transform="translate(0,86.995162)"
         d="m 311.4133,456.36031 -31.48439,-3.66184 29.92507,10.44827 -30.89047,-7.10316 28.59405,13.67686 -29.92159,-10.45825 26.91594,16.73943 -28.58949,-13.6864 24.9111,19.59881 -26.91035,-16.74841 22.60388,22.22028 -24.90456,-19.60712 20.02227,24.57204 -22.59646,-22.22783 17.19762,26.62552 -20.01407,-24.57871 14.16422,28.35579 -17.18874,-26.63125 10.95888,29.74187 -14.15476,-28.36051 7.62052,30.76693 -10.94896,-29.74553 4.18965,31.41851 -7.61025,-30.76947 0.70793,31.68872 -4.17917,-31.41991 -2.78239,31.57427 -0.69736,-31.68895 -6.23893,31.07655 2.79292,-31.57334 -9.61974,30.2016 6.2493,-31.07447 -12.88378,28.96005 9.62981,-30.19839 -15.99142,27.36696 12.89343,-28.95575 -18.90495,25.44167 16.00055,-27.36162 -21.58901,23.20756 18.91344,-25.43537 -24.011,20.69174 21.59675,-23.20036 -26.14153,17.92475 24.0179,-20.68373 -27.95474,14.94017 26.14751,-17.91602 -29.42861,11.77424 27.95972,-14.93084 -30.54527,8.46539 29.43255,-11.76443 -31.29114,5.05378 30.54808,-8.4552 -31.65718,1.58083 31.29283,-5.04334 -31.63895,-1.91133 31.65771,-1.57026 -31.23666,-5.38026 31.63831,1.92187 -30.4552,-8.7839 31.23486,5.39069 -29.30406,-12.08091 30.45227,8.79406 -27.7972,-15.23128 29.30002,12.09069 -25.95292,-18.19675 27.79212,15.24054 -23.79362,-20.94134 25.94685,18.20541 -21.34548,-23.43174 23.78663,20.94928 -18.63825,-25.63771 21.33767,23.43886 -15.70477,-27.53246 18.62969,25.64392 -12.58065,-29.09301 15.69558,27.5377 -9.30383,-30.30041 12.57095,29.0972 -5.91406,-31.14 9.29372,30.30351 -2.45252,-31.6016 5.90368,31.14198 1.03881,-31.6796 2.44197,31.60242 4.51752,-31.37305 -1.04938,31.67925 7.9414,-30.68567 -4.52799,31.37154 11.26887,-29.62582 -7.95163,30.68303 14.45956,-28.20634 -11.27875,29.62205 17.47473,-26.44447 -14.46897,28.20151 20.27778,-24.36161 -17.48355,26.43864 22.83468,-21.98302 -20.2859,24.35484 25.1144,-19.3376 -22.84201,21.9754 27.08927,-16.45744 -25.12085,19.32922 28.73531,-13.37752 -27.09476,16.44841 30.03255,-10.1352 -28.73978,13.36793 30.96523,-6.76986 -30.03593,10.12518 31.52203,-3.32234 -30.96748,6.75953 31.69619,0.1655 -31.52313,3.31183 31.48561,3.65134 -31.69614,-0.17608 z"
         inkscape:randomized="0"
         inkscape:rounded="0"
         inkscape:flatsided="false"
         sodipodi:arg2="0.22585087"
         sodipodi:arg1="0.17073521"
         sodipodi:r2="31.600801"
         sodipodi:r1="63.201603"
         sodipodi:cy="445.62192"
         sodipodi:cx="249.13065"
         sodipodi:sides="57"
         id="path3040"
         style="fill:#f4e3d7"
         sodipodi:type="star" />
      <path
         inkscape:transform-center-y="-0.017199048"
         inkscape:transform-center-x="0.0076396232"
         transform="translate(0,86.995162)"
         d="m 431.68327,462.80333 -15.4115,-5.62464 13.81144,8.85411 -14.69921,-7.2859 12.75359,10.31974 -13.80849,-8.85871 11.54094,11.6601 -12.75015,-10.32399 10.18817,12.85893 -11.53704,-11.66395 8.71176,13.90167 -10.18389,-12.86233 7.12958,14.77566 -8.70711,-13.90458 5.46086,15.4703 -7.12465,-14.77804 3.72586,15.97714 -5.4557,-15.47211 1.94563,16.29004 -3.72053,-15.97838 0.14178,16.40521 -1.9402,-16.29069 -1.66378,16.32124 -0.13631,-16.40526 -3.44916,16.03915 1.66923,-16.32068 -5.19266,15.56237 3.4545,-16.038 -6.87313,14.89668 5.19785,-15.56064 -8.47018,14.05017 6.87811,-14.89439 -9.9644,13.0331 8.47486,-14.04734 -11.33768,11.85784 9.96875,-13.02978 -12.57332,10.53863 11.34163,-11.85405 -13.65634,9.09149 12.57683,-10.53443 -14.5736,7.53401 13.65938,-9.08694 -15.31395,5.88506 14.57611,-7.52914 -15.86841,4.16468 15.31591,-5.87995 -16.23025,2.39375 15.8698,-4.15939 -16.39508,0.59376 16.23105,-2.38834 -16.36089,-1.21343 16.39528,-0.5883 -16.1281,-3.0059 16.36048,1.21889 -15.69954,-4.76188 16.1271,3.01128 -15.08042,-6.46005 15.69796,4.76711 -14.27823,-8.07981 15.07826,6.46508 -13.30272,-9.6015 14.27553,8.08458 -12.16574,-11.00663 13.29952,9.60594 -10.88108,-12.27817 12.16206,11.01069 -9.46434,-13.40065 10.87699,12.2818 -7.93272,-14.36048 9.45987,13.40381 -6.3048,-15.14598 7.92792,14.36312 -4.60035,-15.74763 6.29975,15.14808 -2.84006,-16.15813 4.5951,15.74916 -1.0453,-16.37249 2.83467,16.15908 0.76216,-16.38811 1.03983,16.37284 2.56036,-16.20481 -0.76762,16.38786 4.32748,-15.82479 -2.56577,16.20395 6.04208,-15.25269 -4.33276,15.82335 7.68332,-14.49544 -6.04716,15.25067 9.23131,-13.56223 -7.68816,14.49287 10.66723,-12.46439 -9.23583,13.55915 11.97368,-11.21527 -10.67139,12.46084 13.13478,-9.82999 -11.97742,11.21127 14.13644,-8.3254 -13.13806,9.82561 14.9665,-6.71974 -14.13921,8.32068 15.61489,-5.03252 -14.96874,6.71475 16.07374,-3.28421 -15.61658,5.02731 16.33748,-1.49603 -16.07484,3.27884 16.40289,0.31031 -16.33797,1.49058 16.2692,2.11287 -16.40278,-0.31577 15.93802,3.88979 -16.26849,-2.1183 15.41338,5.6195 -15.93673,-3.89511 z"
         inkscape:randomized="0"
         inkscape:rounded="0"
         inkscape:flatsided="false"
         sodipodi:arg2="0.46000745"
         sodipodi:arg1="0.40489179"
         sodipodi:r2="16.356228"
         sodipodi:r1="32.712456"
         sodipodi:cy="449.91727"
         sodipodi:cx="401.61578"
         sodipodi:sides="57"
         id="path3042"
         style="fill:#f4e3d7"
         sodipodi:type="star" />
      <path
         inkscape:transform-center-y="-0.046782254"
         inkscape:transform-center-x="-0.027053118"
         transform="translate(-25.772135,151.4255)"
         d="m 167.51888,125.61792 -37.32431,-31.38743 29.57003,38.78 -33.64491,-35.302911 25.12445,41.797581 -29.5571,-38.78986 20.37388,44.30779 -25.1105,-41.80596 15.376,46.28017 -20.35909,-44.31459 10.19148,47.69076 -15.36056,-46.28529 4.88324,48.52246 -10.17557,-47.69416 -0.48426,48.76516 -4.867057,-48.52409 -5.845889,48.41592 0.500527,-48.765 -11.136557,47.47897 5.86204,-48.41396 L 69.242682,152.33917 80.395076,104.86392 59.145312,148.75837 75.452687,102.79812 49.503144,144.08851 70.76755,100.20115 40.433221,138.38627 66.396536,97.104539 32.045638,131.72088 62.392704,93.545877 24.442211,124.17324 58.804654,89.568359 17.715233,115.83497 55.675941,85.220267 11.946363,106.80728 53.044543,80.554381 7.2056247,97.199762 50.942402,75.627338 3.5505658,87.129035 49.395035,70.498946 1.0255535,76.717344 48.421224,65.231457 -0.33876213,66.091073 48.032791,59.888811 -0.52582011,55.37921 48.23445,54.53586 0.46665021,44.711783 49.023754,49.237582 2.6266016,34.21828 50.391122,44.058291 5.9278151,24.026078 52.319955,39.060857 10.330219,14.258896 54.78684,34.305941 15.780373,5.035295 57.761833,29.851261 22.21212,-3.5327632 61.208821,25.750893 29.547388,-11.341274 65.085962,22.054608 37.697136,-18.295453 69.346194,18.807274 46.562437,-24.310885 73.937802,16.04831 56.035679,-29.314552 78.805051,13.811205 66.00187,-33.245715 l 17.886989,45.368831 -7.548827,-48.179772 12.787483,47.061189 -2.202839,-48.717787 7.532754,48.182288 3.169887,-48.664433 2.186588,48.718518 8.504135,-48.020358 -3.18612,48.663372 13.73516,-46.793383 -8.52016,48.017519 18.79945,-44.998398 -13.75076,46.788798 23.63554,-42.657194 -18.81446,44.992124 28.18473,-39.79819 -23.64977,42.649308 32.3918,-36.45609 -28.19801,39.788786 36.20568,-32.6714617 -32.40396,36.4452827 39.58006,-28.4902468 -36.21657,32.6593818 42.47399,-23.9631977 -39.58956,28.4770417 44.85236,-19.145269 -42.48199,23.949028 46.68627,-14.094943 -44.85874,19.130306 47.95347,-8.873522 -46.69097,14.079368 48.6386,-3.54439 -47.95644,8.857525 48.7333,1.827768 -48.63977,3.528164 48.23645,7.177737 -48.73268,-1.844024 47.15408,12.44058 -48.23406,-7.193828 45.49932,17.55241 -47.14993,-12.456309 43.29226,22.451178 -45.49346,-17.567587 40.55969,27.077415 -43.28476,-22.465615 37.33478,31.374975 -40.55066,-27.090946 z"
         inkscape:randomized="0"
         inkscape:rounded="0"
         inkscape:flatsided="false"
         sodipodi:arg2="0.80927399"
         sodipodi:arg1="0.75415833"
         sodipodi:r2="48.620129"
         sodipodi:r1="97.240257"
         sodipodi:cy="59.039902"
         sodipodi:cx="96.645508"
         sodipodi:sides="57"
         id="path3044"
         style="fill:#f4e3d7"
         sodipodi:type="star" />
      <path
         inkscape:transform-center-y="0.002861504"
         inkscape:transform-center-x="0.0052922353"
         transform="translate(10.73839,86.995162)"
         d="m 98.793185,56.892226 -3.46303,-4.124413 2.478876,4.78106 -2.988293,-4.480342 1.937876,5.024738 -2.477281,-4.781886 1.373351,5.207424 -1.936199,-5.025384 0.792157,5.326898 -1.371615,-5.207882 0.201347,5.381711 -0.79038,-5.327162 -0.391908,5.371198 -0.199551,-5.381778 -0.980406,5.295485 0.3937,-5.371067 -1.557002,5.155492 0.982172,-5.295157 -2.114698,4.952919 1.558721,-5.154973 -2.646725,4.690224 2.11635,-4.952213 -3.146625,4.370596 2.64829,-4.689341 -3.608328,3.997915 3.148083,-4.369546 -4.026232,3.576704 3.609662,-3.996711 -4.395263,3.112078 4.027425,-3.575361 -4.71094,2.609674 4.3963,-3.110611 -4.969433,2.075593 4.71181,-2.608102 -5.167604,1.516317 4.970125,-2.073936 -5.303048,0.938636 5.16811,-1.514594 -5.37412,0.34956 5.303361,-0.936866 -5.379957,-0.24376 5.374236,-0.347767 -5.320488,-0.834119 5.379875,0.245554 -5.196437,-1.414354 5.32021,0.835894 -5.009307,-1.977421 5.195965,1.416088 -4.761372,-2.516485 5.008647,1.979092 -4.455639,-3.025001 4.760532,2.518073 -4.095822,-3.496799 4.45463,3.026488 -3.686286,-3.92615 4.094655,3.498165 -3.232004,-4.307842 3.684976,3.927379 -2.73849,-4.637244 3.230567,4.30892 -2.211735,-4.910355 2.736944,4.638157 -1.658132,-5.123861 2.210097,4.911092 -1.084401,-5.275171 1.656422,5.124414 -0.497507,-5.362447 1.082641,5.275532 0.09543,-5.384631 0.495718,5.362614 0.6872,-5.341453 -0.09722,5.384599 1.270633,-5.233435 -0.688982,5.341222 1.838642,-5.061892 -1.272379,5.233012 2.384333,-4.828904 -1.840331,5.061278 2.901081,-4.5373 -2.385944,4.828109 3.382613,-4.190619 -2.902593,4.536332 3.823085,-3.793069 -3.384011,4.18949 4.217151,-3.349477 -3.824351,3.791793 4.560021,-2.865226 -4.218263,3.348069 4.847543,-2.346196 -4.560976,2.863705 5.076226,-1.798686 -4.848329,2.344579 5.243289,-1.229343 -5.076828,1.796993 5.346708,-0.645077 -5.243703,1.227594 5.385213,-0.05298 -5.346915,0.643293 5.358355,0.539759 -5.385229,0.05118 5.266459,1.125947 -5.358178,-0.541547 5.110628,1.698467 -5.266079,-1.127703 4.892769,2.25037 -5.110066,-1.700172 4.615516,2.774957 -4.89202,-2.252003 4.28223,3.265859 -4.614585,-2.776496 3.896975,3.717119 -4.281147,-3.267288 3.464406,4.123257 -3.895731,-3.718418 z"
         inkscape:randomized="0"
         inkscape:rounded="0"
         inkscape:flatsided="false"
         sodipodi:arg2="0.98241088"
         sodipodi:arg1="0.92729522"
         sodipodi:r2="5.369195"
         sodipodi:r1="10.73839"
         sodipodi:cy="48.301514"
         sodipodi:cx="92.350151"
         sodipodi:sides="57"
         id="path3046"
         style="fill:#f4e3d7"
         sodipodi:type="star" />
    </g>
  </g>
</svg>
